<?xml version="1.0" encoding="utf-8"?>
<!-- Generator: Adobe Illustrator 24.0.1, SVG Export Plug-In . SVG Version: 6.00 Build 0)  -->
<svg version="1.1" id="Слой_1" xmlns="http://www.w3.org/2000/svg" xmlns:xlink="http://www.w3.org/1999/xlink" x="0px" y="0px"
	 viewBox="0 0 2800 1600" style="enable-background:new 0 0 2800 1600;" xml:space="preserve">
<style type="text/css">
	.st0{fill:#95B1C9;}
	.st1{opacity:0.5;}
	.st2{fill:#C2C6D8;}
	.st3{fill:#FFFFFF;}
	.st4{fill:#96A3C8;}
	.st5{fill:#EFEEF2;}
	.st6{fill:#403B8B;}
	.st7{fill:#2C2260;}
	.st8{fill:#AA99C5;}
	.st9{fill:#3E3686;}
	.st10{fill:#574F9D;}
	.st11{fill:#EEF0F0;}
	.st12{fill:#FDFEFE;}
	.st13{fill:#8997BF;}
	.st14{fill:#979FC5;}
	.st15{fill:#EAECED;}
	.st16{fill:#8D94BE;}
	.st17{fill:#A8B1D2;}
	.st18{fill:#ECEEEE;}
	.st19{fill:#D3D8E0;}
	.st20{fill:#403F80;}
	.st21{fill:#1B1645;}
	.st22{fill:#FEFEFE;}
	.st23{fill:#F4A5C3;}
	.st24{fill:#838FBB;}
	.st25{fill:#F9FAFA;}
	.st26{fill:#F8F9F8;}
	.st27{fill:#2D2464;}
	.st28{fill:#B4B3D2;}
	.st29{fill:#FBFCFC;}
	.st30{fill:#C9D2DD;}
	.st31{opacity:0.7;}
	.st32{fill:#FAFBFB;}
	.st33{fill:#A6A3CA;}
	.st34{fill:#AFBFD7;}
	.st35{fill:#FDFDFC;}
	.st36{fill:#F3833D;}
	.st37{fill:#F19F66;}
	.st38{fill:#EC8C55;}
	.st39{fill:#2D427F;}
	.st40{fill:#384E9B;}
	.st41{fill:#B03042;}
	.st42{fill:#E7A587;}
	.st43{fill:#B4C2D7;}
	.st44{fill:#FCFCFC;}
	.st45{fill:#F49FBF;}
	.st46{fill:#EFE3E8;}
	.st47{fill:#B3C3D8;}
	.st48{fill:#3F5CA0;}
	.st49{fill:#DBE2E5;}
	.st50{fill:#94A2C7;}
	.st51{fill:#D4DBE0;}
	.st52{fill:#EDF0F0;}
	.st53{fill:#D8DDE2;}
	.st54{fill:#A5A9CE;}
	.st55{fill:#F6F8F3;}
	.st56{fill:#D8DCE2;}
	.st57{fill:#F8F9F7;}
	.st58{fill:#FBFBFB;}
	.st59{fill:#D8D8D8;}
	.st60{fill:#616DAE;}
	.st61{fill:#ADB6D3;}
</style>
<g>
	<rect class="st0" width="2800" height="1600"/>
</g>
<g class="st1">
	<path class="st2" d="M556.44,1255.6c0,0-150.85-101.79-146.14-184.31c12.81-224.65,224.33-560.12,221.34-602.2
		c-4.09-57.54,63.06-171.93,222.51-153.54s140.89-20.43,191.02-74.55c50.13-54.13-9.11-92.94,158.38-68.43
		s203.74-17.36,290.81-15.83c87.06,1.53,41.74-51.57,158.36,58.72s221.97,130.72,356.19,134.81
		c134.22,4.09,124.01-26.55,158.73,55.15c34.72,81.7,22.47,114.38,81.7,167.49c59.23,53.11,101.27,54.8,92.51,143.83
		c-8.76,89.03-74.43,124.13-51.99,240.17s88.68,103.32,34.21,171.91c-54.47,68.6-141.5,101.38-261.3,131.2
		c-119.8,29.82-697.93-11.39-873.04-9.5C1014.62,1252.42,556.44,1255.6,556.44,1255.6z"/>
</g>
<g>
	<g>
		<g>
			<path class="st3" d="M2032.85,431.54l-1.61-3.66c0.08-0.04,2.04-0.9,5.72-2.21l1.35,3.77
				C2034.78,430.7,2032.86,431.54,2032.85,431.54z"/>
		</g>
	</g>
	<g>
		<g>
			<path class="st3" d="M2298.59,557.42l-3.98-0.38c0.39-4.04,0.62-8.15,0.69-12.21l4,0.07
				C2299.23,549.07,2298.99,553.28,2298.59,557.42z M2295.04,532.61c-0.26-4.11-0.69-8.2-1.29-12.15l3.96-0.6
				c0.61,4.06,1.06,8.27,1.32,12.49L2295.04,532.61z M2291.36,508.51c-1-3.97-2.19-7.89-3.57-11.64l3.76-1.37
				c1.42,3.88,2.66,7.93,3.69,12.04L2291.36,508.51z M2282.99,485.71c-1.82-3.63-3.86-7.16-6.08-10.5l3.34-2.21
				c2.3,3.47,4.42,7.15,6.32,10.92L2282.99,485.71z M2269.61,465.53c-2.6-3.04-5.44-5.98-8.43-8.72l2.7-2.95
				c3.11,2.85,6.06,5.9,8.77,9.06L2269.61,465.53z M2251.76,449.15c-3.22-2.33-6.65-4.55-10.22-6.59l1.99-3.47
				c3.68,2.11,7.24,4.41,10.57,6.82L2251.76,449.15z M2230.7,437.01c-3.61-1.64-7.42-3.18-11.32-4.57l1.34-3.77
				c4,1.43,7.92,3.01,11.63,4.69L2230.7,437.01z M2207.71,428.63c-3.92-1.19-7.91-2.31-11.84-3.33l1-3.87
				c3.99,1.03,8.03,2.17,12,3.38L2207.71,428.63z M2049.98,425.72l-1.1-3.85c3.91-1.11,7.98-2.16,12.1-3.1l0.89,3.9
				C2057.82,423.6,2053.82,424.62,2049.98,425.72z M2183.89,422.46c-4-0.86-8.06-1.65-12.08-2.34l0.68-3.94
				c4.07,0.7,8.19,1.5,12.24,2.37L2183.89,422.46z M2073.92,420.21l-0.71-3.94c4.05-0.73,8.2-1.37,12.33-1.92l0.52,3.97
				C2082,418.86,2077.91,419.5,2073.92,420.21z M2159.65,418.29c-4.05-0.52-8.16-0.96-12.23-1.31l0.34-3.99
				c4.12,0.35,8.29,0.8,12.4,1.33L2159.65,418.29z M2098.29,416.99l-0.35-3.98c4.11-0.36,8.3-0.63,12.45-0.81l0.17,4
				C2106.47,416.36,2102.34,416.63,2098.29,416.99z M2135.15,416.18c-4.08-0.18-8.21-0.26-12.29-0.26l-0.01-4h0.01
				c4.13,0,8.32,0.09,12.46,0.27L2135.15,416.18z"/>
		</g>
	</g>
	<g>
		<g>
			<path class="st3" d="M2299.07,578.7c-3.67-0.88-5.73-1.27-5.75-1.27l-2.11-0.39l0.54-2.08c0-0.02,0.55-2.11,1.2-5.72l3.94,0.71
				c-0.3,1.64-0.57,2.98-0.79,3.97c0.97,0.21,2.29,0.51,3.91,0.9L2299.07,578.7z"/>
		</g>
	</g>
	<g>
		<g>
			<path class="st3" d="M2428.31,1183.28l-3.73-1.45c1.29-3.33,2.74-7.12,4.34-11.33l3.74,1.42
				C2431.06,1176.14,2429.61,1179.94,2428.31,1183.28z M2436.92,1160.53l-3.75-1.39c1.33-3.59,2.72-7.39,4.17-11.39l3.76,1.36
				C2439.66,1153.12,2438.26,1156.93,2436.92,1160.53z M2445.22,1137.68l-3.77-1.34c1.31-3.69,2.66-7.5,4.03-11.44l3.78,1.32
				C2447.88,1130.16,2446.53,1133.99,2445.22,1137.68z M2453.21,1114.74l-3.79-1.29c1.28-3.74,2.57-7.57,3.88-11.48l3.79,1.27
				C2455.79,1107.15,2454.49,1110.99,2453.21,1114.74z M2460.92,1091.69l-3.8-1.24c1.24-3.78,2.48-7.63,3.73-11.53l3.81,1.22
				C2463.4,1084.05,2462.16,1087.91,2460.92,1091.69z M2468.32,1068.56l-3.82-1.19c1.19-3.81,2.38-7.67,3.57-11.58l3.83,1.17
				C2470.7,1060.86,2469.51,1064.73,2468.32,1068.56z M2475.4,1045.32l-3.83-1.14c1.14-3.84,2.27-7.72,3.4-11.63l3.84,1.11
				C2477.68,1037.58,2476.54,1041.47,2475.4,1045.32z M2482.13,1021.98l-3.85-1.08c1.08-3.87,2.16-7.76,3.22-11.68l3.86,1.05
				C2484.29,1014.19,2483.22,1018.1,2482.13,1021.98z M2488.49,998.53l-3.87-1.01c1.02-3.89,2.03-7.8,3.02-11.73l3.88,0.98
				C2490.52,990.7,2489.51,994.62,2488.49,998.53z M2494.43,974.97l-3.89-0.94c0.95-3.93,1.88-7.87,2.8-11.81l3.9,0.9
				C2496.32,967.07,2495.38,971.02,2494.43,974.97z M2499.91,951.25l-3.91-0.86c0.88-3.98,1.73-7.96,2.53-11.83l3.92,0.81
				C2501.64,943.26,2500.79,947.26,2499.91,951.25z M2504.85,927.47l-3.93-0.77c0.77-3.96,1.53-7.96,2.24-11.89l3.94,0.71
				C2506.38,919.47,2505.62,923.49,2504.85,927.47z M2509.18,903.55l-3.95-0.66c0.67-4.02,1.31-8.04,1.89-11.95l3.96,0.59
				C2510.49,895.46,2509.85,899.5,2509.18,903.55z M2512.79,879.49l-3.96-0.53c0.54-4.06,1.04-8.1,1.48-12l3.97,0.45
				C2513.83,871.34,2513.33,875.41,2512.79,879.49z M2515.53,855.31l-3.98-0.37c0.38-4.08,0.71-8.13,0.98-12.04l3.99,0.28
				C2516.25,847.12,2515.92,851.2,2515.53,855.31z M2517.22,831.02l-4-0.18c0.18-4.08,0.3-8.14,0.36-12.06l4,0.06
				C2517.52,822.8,2517.4,826.9,2517.22,831.02z M2513.57,806.72c-0.08-4.1-0.22-8.15-0.44-12.04l3.99-0.23
				c0.22,3.93,0.37,8.04,0.45,12.19L2513.57,806.72z M2512.19,782.69c-0.41-4.09-0.92-8.1-1.51-11.92l3.95-0.61
				c0.6,3.88,1.12,7.96,1.54,12.13L2512.19,782.69z M2508.49,758.98c-0.88-4.01-1.88-7.91-2.97-11.59l3.83-1.14
				c1.13,3.78,2.15,7.78,3.05,11.88L2508.49,758.98z M2501.61,736.11c-1.51-3.79-3.19-7.42-4.99-10.8l3.53-1.88
				c1.87,3.5,3.61,7.27,5.17,11.19L2501.61,736.11z M2490.61,714.93c-2.09-3.41-4.27-6.82-6.5-10.12l3.32-2.23
				c2.26,3.35,4.47,6.81,6.59,10.27L2490.61,714.93z M2477.18,694.98c-2.37-3.21-4.84-6.41-7.35-9.52l3.11-2.51
				c2.55,3.15,5.06,6.4,7.46,9.66L2477.18,694.98z M2462.07,676.26c-2.64-2.99-5.38-5.97-8.14-8.86l2.89-2.77
				c2.81,2.93,5.58,5.95,8.26,8.98L2462.07,676.26z M2445.41,658.89c-2.88-2.76-5.86-5.5-8.85-8.16l2.65-3
				c3.04,2.69,6.06,5.47,8.97,8.27L2445.41,658.89z M2427.38,642.94c-3.08-2.51-6.27-5.01-9.48-7.43l2.41-3.2
				c3.25,2.45,6.48,4.98,9.6,7.52L2427.38,642.94z M2408.14,628.45c-3.26-2.26-6.63-4.51-10.02-6.69l2.16-3.37
				c3.43,2.2,6.85,4.48,10.15,6.77L2408.14,628.45z M2387.86,615.45c-3.42-2.02-6.95-4.02-10.48-5.94l1.91-3.51
				c3.58,1.94,7.15,3.97,10.61,6.02L2387.86,615.45z M2366.68,603.93c-3.58-1.79-7.24-3.54-10.88-5.2l1.66-3.64
				c3.68,1.68,7.38,3.45,11,5.26L2366.68,603.93z M2344.75,593.91c-3.72-1.55-7.49-3.04-11.21-4.44l1.41-3.74
				c3.76,1.41,7.58,2.93,11.34,4.49L2344.75,593.91z M2322.18,585.43c-3.87-1.3-7.74-2.51-11.5-3.61l1.12-3.84
				c3.81,1.11,7.73,2.35,11.65,3.66L2322.18,585.43z"/>
		</g>
	</g>
	<g>
		<g>
			<path class="st3" d="M2421.79,1199.77l-3.7-1.52c0-0.01,0.79-1.93,2.23-5.54l3.72,1.48
				C2422.58,1197.83,2421.79,1199.77,2421.79,1199.77z"/>
		</g>
	</g>
</g>
<g>
	<g>
		<g>
			<path class="st3" d="M1485.48,181.72l-1.14-3.83c0.08-0.03,2.12-0.63,5.9-1.54l0.94,3.89
				C1487.51,181.12,1485.5,181.71,1485.48,181.72z"/>
		</g>
	</g>
	<g>
		<g>
			<path class="st3" d="M1915.73,392.83c-2.32-3.2-4.74-6.49-7.19-9.77l3.21-2.39c2.46,3.29,4.89,6.59,7.22,9.81L1915.73,392.83z
				 M1901.23,373.4c-2.46-3.19-4.96-6.41-7.45-9.57l3.14-2.48c2.5,3.17,5.02,6.4,7.48,9.61L1901.23,373.4z M1886.2,354.36
				c-2.54-3.13-5.13-6.28-7.7-9.37l3.07-2.56c2.58,3.1,5.18,6.26,7.73,9.41L1886.2,354.36z M1870.69,335.73
				c-2.61-3.05-5.28-6.13-7.94-9.16l3-2.64c2.67,3.04,5.35,6.13,7.98,9.2L1870.69,335.73z M1854.68,317.53c-2.72-3-5.47-6-8.19-8.92
				l2.93-2.73c2.74,2.93,5.51,5.95,8.24,8.97L1854.68,317.53z M1838.16,299.81c-2.82-2.93-5.67-5.85-8.47-8.66l2.84-2.82
				c2.81,2.83,5.67,5.76,8.51,8.71L1838.16,299.81z M1821.09,282.63c-2.9-2.82-5.85-5.63-8.76-8.36l2.74-2.92
				c2.93,2.74,5.89,5.57,8.81,8.41L1821.09,282.63z M1803.42,266.08c-3.02-2.72-6.08-5.42-9.09-8.02l2.61-3.03
				c3.03,2.61,6.11,5.33,9.15,8.07L1803.42,266.08z M1785.08,250.25c-3.14-2.59-6.31-5.14-9.42-7.58l2.47-3.15
				c3.13,2.46,6.33,5.03,9.5,7.64L1785.08,250.25z M1766.06,235.36c-3.26-2.42-6.56-4.79-9.81-7.06l2.29-3.28
				c3.28,2.29,6.61,4.68,9.9,7.12L1766.06,235.36z M1746.24,221.55c-3.41-2.22-6.86-4.37-10.23-6.4l2.06-3.43
				c3.42,2.05,6.9,4.23,10.35,6.48L1746.24,221.55z M1725.55,209.15c-3.57-1.96-7.16-3.83-10.69-5.56l1.77-3.59
				c3.58,1.76,7.23,3.66,10.84,5.65L1725.55,209.15z M1703.94,198.49c-3.66-1.61-7.4-3.17-11.12-4.64l1.47-3.72
				c3.77,1.49,7.57,3.07,11.27,4.7L1703.94,198.49z M1681.52,189.65c-3.76-1.31-7.62-2.58-11.46-3.75l1.17-3.83
				c3.89,1.19,7.79,2.47,11.6,3.8L1681.52,189.65z M1658.47,182.59c-3.85-1.02-7.79-1.98-11.71-2.87l0.88-3.9
				c3.97,0.89,7.96,1.87,11.86,2.9L1658.47,182.59z M1502.95,177.71l-0.76-3.93c3.89-0.75,7.94-1.45,12.03-2.08l0.61,3.95
				C1510.79,176.28,1506.79,176.97,1502.95,177.71z M1634.94,177.3c-3.92-0.73-7.93-1.41-11.9-2l0.59-3.96
				c4.02,0.6,8.07,1.28,12.04,2.02L1634.94,177.3z M1526.79,174.02l-0.47-3.97c4.01-0.48,8.09-0.89,12.14-1.24l0.34,3.99
				C1534.8,173.14,1530.76,173.55,1526.79,174.02z M1611.09,173.72c-3.97-0.45-8.01-0.84-12.01-1.16l0.32-3.99
				c4.04,0.32,8.13,0.71,12.15,1.17L1611.09,173.72z M1550.84,171.96l-0.21-3.99c4.04-0.21,8.14-0.37,12.19-0.45l0.08,4
				C1558.89,171.6,1554.83,171.75,1550.84,171.96z M1587.03,171.81c-3.99-0.18-8.05-0.3-12.06-0.35l0.05-4
				c4.06,0.05,8.17,0.17,12.2,0.35L1587.03,171.81z"/>
		</g>
	</g>
	<g>
		<g>
			<path class="st3" d="M1925.99,407.41c-0.01-0.01-1.17-1.75-3.37-4.91l3.28-2.29c2.24,3.21,3.42,4.98,3.42,4.98L1925.99,407.41z"
				/>
		</g>
	</g>
</g>
<g>
	<g>
		<g>
			<path class="st3" d="M448.95,511.49l-3.98-0.39c0.01-0.09,0.22-2.2,0.75-6.03l3.96,0.55
				C449.16,509.36,448.95,511.47,448.95,511.49z"/>
		</g>
	</g>
	<g>
		<g>
			<path class="st3" d="M451.55,493.8l-3.94-0.69c0.69-3.9,1.46-7.91,2.29-11.91l3.92,0.81
				C452.99,485.97,452.23,489.94,451.55,493.8z M456.43,470.28l-3.89-0.93c0.93-3.91,1.93-7.86,2.97-11.75l3.86,1.04
				C458.34,462.49,457.35,466.41,456.43,470.28z M462.65,447.09l-3.83-1.15c1.16-3.87,2.38-7.75,3.65-11.56l3.8,1.26
				C465.01,439.41,463.79,443.26,462.65,447.09z M470.21,424.31l-3.76-1.38c1.4-3.81,2.86-7.61,4.35-11.32l3.71,1.5
				C473.04,416.78,471.59,420.54,470.21,424.31z M1010.68,407.3c-2.59-2.88-5.34-5.84-8.16-8.79l2.89-2.76
				c2.85,2.98,5.62,5.97,8.24,8.88L1010.68,407.3z M479.2,402.07l-3.66-1.62c1.65-3.72,3.38-7.42,5.12-11l3.59,1.75
				C482.53,394.74,480.83,398.4,479.2,402.07z M994.12,389.95c-2.81-2.78-5.71-5.59-8.63-8.34l2.75-2.91
				c2.94,2.78,5.87,5.61,8.7,8.41L994.12,389.95z M489.71,380.54l-3.52-1.89c1.93-3.59,3.93-7.15,5.95-10.57l3.44,2.03
				C493.59,373.49,491.61,377,489.71,380.54z M976.66,373.48c-2.95-2.65-5.99-5.31-9.02-7.92l2.6-3.04
				c3.06,2.62,6.12,5.31,9.09,7.98L976.66,373.48z M501.9,359.94l-3.35-2.18c2.23-3.42,4.54-6.79,6.86-10.02l3.25,2.34
				C506.36,353.26,504.09,356.58,501.9,359.94z M958.43,357.86c-3.09-2.52-6.25-5.04-9.39-7.48l2.46-3.16
				c3.16,2.46,6.35,5,9.46,7.54L958.43,357.86z M939.49,343.12c-3.21-2.38-6.48-4.74-9.73-7.03l2.3-3.27
				c3.27,2.3,6.57,4.69,9.8,7.09L939.49,343.12z M515.88,340.56l-3.12-2.5c2.55-3.18,5.18-6.31,7.84-9.29l2.99,2.66
				C520.97,334.37,518.38,337.44,515.88,340.56z M919.87,329.29c-3.32-2.22-6.7-4.43-10.05-6.56l2.14-3.38
				c3.37,2.14,6.78,4.37,10.13,6.61L919.87,329.29z M531.76,322.76l-2.83-2.83c2.88-2.88,5.85-5.69,8.85-8.35l2.66,2.99
				C537.5,317.18,534.58,319.94,531.76,322.76z M899.62,316.37c-3.61-2.23-6.98-4.26-10.28-6.23l2.04-3.44
				c3.32,1.97,6.7,4.02,10.33,6.26L899.62,316.37z M549.59,306.95l-2.46-3.15c3.2-2.5,6.51-4.91,9.83-7.17l2.25,3.31
				C555.95,302.15,552.72,304.51,549.59,306.95z M878.96,304.1c-3.56-2.02-7.09-3.98-10.5-5.8l1.89-3.52
				c3.44,1.84,7,3.81,10.59,5.85L878.96,304.1z M569.26,293.57l-2.02-3.45c3.49-2.04,7.09-3.99,10.7-5.79l1.78,3.58
				C576.19,289.67,572.67,291.57,569.26,293.57z M857.82,292.78c-3.62-1.82-7.25-3.57-10.79-5.2l1.68-3.63
				c3.58,1.66,7.25,3.42,10.91,5.26L857.82,292.78z M590.55,282.99l-1.53-3.7c3.72-1.54,7.56-2.98,11.4-4.26l1.27,3.79
				C597.94,280.08,594.19,281.48,590.55,282.99z M836.07,282.73c-3.7-1.56-7.44-3.05-11.12-4.44l1.41-3.74
				c3.72,1.41,7.51,2.92,11.25,4.5L836.07,282.73z M613.11,275.4l-1.04-3.86c3.92-1.06,7.86-2.08,11.71-3.03l0.96,3.88
				C620.92,273.34,617.01,274.35,613.11,275.4z M813.68,274.28c-3.78-1.26-7.62-2.45-11.42-3.55l1.11-3.84
				c3.85,1.11,7.75,2.32,11.58,3.6L813.68,274.28z M636.42,269.65l-0.87-3.9c3.96-0.88,7.94-1.71,11.84-2.48l0.77,3.92
				C644.29,267.95,640.34,268.78,636.42,269.65z M790.7,267.66c-3.85-0.94-7.78-1.8-11.68-2.57l0.78-3.92
				c3.95,0.78,7.94,1.66,11.84,2.61L790.7,267.66z M659.96,265.04l-0.67-3.94c4-0.68,8.02-1.3,11.96-1.85l0.55,3.96
				C667.91,263.75,663.92,264.37,659.96,265.04z M767.25,263.01c-3.91-0.6-7.9-1.13-11.86-1.58l0.44-3.98
				c4.02,0.45,8.06,0.99,12.02,1.6L767.25,263.01z M683.7,261.72l-0.43-3.98c4.04-0.44,8.1-0.82,12.06-1.12l0.31,3.99
				C691.72,260.91,687.7,261.29,683.7,261.72z M743.48,260.35c-3.93-0.28-7.95-0.48-11.95-0.61l0.13-4
				c4.05,0.13,8.12,0.33,12.11,0.61L743.48,260.35z M707.59,259.9l-0.17-4c4.04-0.17,8.12-0.27,12.12-0.3l0.03,4
				C715.62,259.63,711.59,259.73,707.59,259.9z"/>
		</g>
	</g>
	<g>
		<g>
			<path class="st3" d="M1024.92,424.45l-2.68-3.52c-0.01-0.02-1.28-1.67-3.71-4.6l3.07-2.56c0.43,0.52,0.83,0.99,1.18,1.43
				c0.13-0.55,0.27-1.15,0.43-1.8l3.89,0.94c-0.88,3.66-1.3,5.75-1.31,5.77L1024.92,424.45z"/>
		</g>
	</g>
	<g>
		<g>
			<path class="st3" d="M1030.1,402.89l-3.85-1.08c1.06-3.78,2.21-7.65,3.42-11.5l3.82,1.2
				C1032.28,395.32,1031.14,399.15,1030.1,402.89z M1624.42,389l-9.97-6.5l2.19-3.35l9.97,6.5L1624.42,389z M1037.21,380.25
				l-3.78-1.32c1.31-3.77,2.69-7.55,4.11-11.26l3.74,1.43C1039.88,372.77,1038.51,376.52,1037.21,380.25z M1604.47,375.99l-9.97-6.5
				l2.19-3.35l9.97,6.5L1604.47,375.99z M1584.53,362.98l-9.97-6.51l2.19-3.35l9.97,6.51L1584.53,362.98z M1045.7,358.1l-3.69-1.55
				c1.56-3.71,3.19-7.4,4.83-10.98l3.63,1.67C1048.85,350.78,1047.24,354.43,1045.7,358.1z M1564.58,349.97l-9.97-6.51l2.19-3.35
				l9.97,6.51L1564.58,349.97z M1544.63,336.96l-9.97-6.5l2.19-3.35l9.97,6.51L1544.63,336.96z M1055.64,336.58l-3.57-1.81
				c1.83-3.61,3.72-7.17,5.63-10.6l3.49,1.95C1059.31,329.5,1057.44,333.02,1055.64,336.58z M1524.68,323.95l-9.98-6.51l2.19-3.35
				l9.98,6.51L1524.68,323.95z M1067.18,315.91l-3.4-2.1c2.13-3.45,4.33-6.84,6.55-10.08l3.3,2.26
				C1071.44,309.18,1069.28,312.52,1067.18,315.91z M1504.73,310.94l-5.16-3.36c-1.61-1.05-3.22-2.09-4.82-3.11l2.16-3.37
				c1.61,1.03,3.22,2.08,4.85,3.13l5.15,3.36L1504.73,310.94z M1484.7,298.14c-3.38-2.08-6.8-4.15-10.16-6.14l2.04-3.44
				c3.39,2,6.83,4.08,10.23,6.17L1484.7,298.14z M1080.55,296.44l-3.17-2.43c2.48-3.23,5.03-6.36,7.6-9.33l3.02,2.62
				C1085.49,290.21,1082.98,293.28,1080.55,296.44z M1464.26,286.06c-3.47-1.96-6.96-3.89-10.39-5.73l1.9-3.52
				c3.45,1.86,6.97,3.8,10.46,5.77L1464.26,286.06z M1096.01,278.66l-2.84-2.82c2.87-2.89,5.83-5.67,8.79-8.25l2.63,3.02
				C1101.69,273.13,1098.8,275.83,1096.01,278.66z M1443.36,274.82c-3.55-1.81-7.13-3.59-10.63-5.27l1.74-3.6
				c3.53,1.7,7.13,3.49,10.71,5.31L1443.36,274.82z M1421.99,264.52c-3.61-1.63-7.26-3.23-10.86-4.75l1.56-3.68
				c3.63,1.53,7.32,3.15,10.96,4.79L1421.99,264.52z M1113.75,263.27l-2.37-3.22c3.28-2.41,6.66-4.67,10.04-6.71l2.07,3.42
				C1120.21,258.74,1116.93,260.93,1113.75,263.27z M1400.14,255.3c-3.7-1.45-7.43-2.85-11.1-4.17l1.35-3.76
				c3.7,1.33,7.47,2.75,11.2,4.21L1400.14,255.3z M1133.78,251.19l-1.73-3.61c3.65-1.75,7.41-3.32,11.16-4.66l1.35,3.77
				C1140.94,247.99,1137.31,249.5,1133.78,251.19z M1377.84,247.29c-3.77-1.23-7.57-2.41-11.32-3.51l1.13-3.84
				c3.78,1.11,7.63,2.3,11.43,3.55L1377.84,247.29z M1155.75,243.32l-0.95-3.89c0.54-0.13,1.09-0.26,1.64-0.39
				c3.39-0.78,6.77-1.53,10.04-2.23l0.84,3.91c-3.26,0.7-6.62,1.45-9.99,2.22C1156.81,243.07,1156.28,243.19,1155.75,243.32z
				 M1355.1,240.61c-3.81-0.99-7.69-1.93-11.51-2.8l0.88-3.9c3.87,0.87,7.78,1.82,11.63,2.83L1355.1,240.61z M1178.96,238.33
				l-0.77-3.92c3.97-0.78,7.92-1.52,11.75-2.19l0.69,3.94C1186.83,236.83,1182.9,237.56,1178.96,238.33z M1332,235.39
				c-3.87-0.74-7.8-1.42-11.67-2.03l0.62-3.95c3.91,0.61,7.88,1.3,11.8,2.05L1332,235.39z M1202.34,234.23l-0.61-3.95
				c3.98-0.61,7.96-1.17,11.84-1.67l0.51,3.97C1210.24,233.07,1206.28,233.62,1202.34,234.23z M1308.61,231.73
				c-3.89-0.48-7.86-0.89-11.78-1.24l0.35-3.98c3.96,0.35,7.97,0.77,11.91,1.25L1308.61,231.73z M1225.87,231.22l-0.4-3.98
				c3.99-0.41,8-0.76,11.92-1.04l0.29,3.99C1233.79,230.47,1229.82,230.81,1225.87,231.22z M1285.02,229.65
				c-3.91-0.21-7.89-0.36-11.83-0.44l0.08-4c3.99,0.08,8.02,0.23,11.97,0.44L1285.02,229.65z M1249.5,229.49l-0.17-4
				c3.99-0.17,8.02-0.28,11.97-0.33l0.05,4C1257.43,229.21,1253.45,229.32,1249.5,229.49z"/>
		</g>
	</g>
	<g>
		<g>
			
				<rect x="1636.09" y="392.53" transform="matrix(0.5463 -0.8376 0.8376 0.5463 411.9516 1551.5472)" class="st3" width="4" height="6"/>
		</g>
	</g>
</g>
<g>
	<g>
		<path class="st4" d="M2071.89,1153.36H800.91c-6.6,0-12-5.4-12-12V458.64c0-6.6,5.4-12,12-12h1270.98c6.6,0,12,5.4,12,12v682.72
			C2083.89,1147.96,2078.49,1153.36,2071.89,1153.36z"/>
	</g>
	<g>
		<path class="st5" d="M2043.3,1095.81H800.91c-6.6,0-12-5.4-12-12V401.09c0-6.6,5.4-12,12-12H2043.3c6.6,0,12,5.4,12,12v682.72
			C2055.3,1090.41,2049.9,1095.81,2043.3,1095.81z"/>
	</g>
	<g>
		<path class="st6" d="M2006.53,1071.3H829.51c-6.6,0-12-5.4-12-12V431.72c0-6.6,5.4-12,12-12h1177.02c6.6,0,12,5.4,12,12v627.57
			C2018.53,1065.9,2013.13,1071.3,2006.53,1071.3z"/>
	</g>
	<g>
		<path class="st7" d="M1969.77,1034.53H860.15c-6.6,0-12-5.4-12-12V472.57c0-6.6,5.4-12,12-12h1109.62c6.6,0,12,5.4,12,12v549.96
			C1981.77,1029.13,1976.37,1034.53,1969.77,1034.53z"/>
	</g>
</g>
<g>
	<g>
		<path class="st8" d="M252.75,1399.06c0,0-134.81-15.09-134.81,17c0,32.09,1530.28,56.6,1822.16,41.28
			c291.88-15.32,748.39-9.03,745.33-41.28C2682.36,1383.81,252.75,1399.06,252.75,1399.06z"/>
	</g>
	<g>
		<g>
			<path class="st9" d="M213.88,1404.52l226.38-177.36c0,0,985.8-46.98,1389.97-34.72c404.17,12.26,572.57,78.49,572.57,78.49
				l178.9,133.92c3.08,2.3,1.42,7.13-2.44,7.13L218,1416.06C211.76,1416.07,209,1408.34,213.88,1404.52z"/>
		</g>
		<g>
			<path class="st10" d="M233.56,1387.55l222.42-177.36c0,0,968.53-46.98,1365.63-34.72c397.1,12.26,562.54,78.49,562.54,78.49
				l175.77,133.92c3.02,2.3,1.4,7.13-2.4,7.13l-2319.9,4.08C231.48,1399.1,228.77,1391.37,233.56,1387.55z"/>
		</g>
	</g>
</g>
<g>
	<path class="st11" d="M2182.11,1314.73c0,28-45.08,50.69-100.68,50.69c-55.61,0-100.68-22.7-100.68-50.69
		c0-28,45.08-55.62,100.68-55.62C2137.03,1259.11,2182.11,1286.73,2182.11,1314.73z"/>
</g>
<g>
	<path class="st12" d="M2148.32,1297.43c0,19.38-31.21,35.1-69.7,35.1c-38.5,0-69.7-15.71-69.7-35.1s31.21-38.51,69.7-38.51
		C2117.11,1258.92,2148.32,1278.04,2148.32,1297.43z"/>
</g>
<g>
	<g>
		<path class="st3" d="M1034.36,511.3c0,0-63.66,24.85-70.3,75.4c-6.64,50.55-0.51,95.49,18.89,112.34
			c19.4,16.85,51.4,24.51,51.4,24.51V511.3z"/>
	</g>
	<g>
		<path class="st3" d="M1856.88,511.83c0,0,63.18,26.05,68.86,76.72c5.68,50.67-1.3,95.48-21.01,111.96
			c-19.72,16.48-51.86,23.53-51.86,23.53L1856.88,511.83z"/>
	</g>
	<g>
		<path class="st13" d="M1809.84,487.15c0,0,33.69-7.38,45.33,7.04c11.64,14.42,4.79,232.55-1.53,242.64
			c-6.32,10.1-53.59,12.3-53.59,12.3L1809.84,487.15z"/>
	</g>
	<g>
		<g>
			<path class="st14" d="M1441.37,339.04L1441.37,339.04c-4.04,0-7.35-3.31-7.35-7.35v-83.35c0-4.04,3.31-7.35,7.35-7.35l0,0
				c4.04,0,7.35,3.31,7.35,7.35v83.35C1448.71,335.74,1445.41,339.04,1441.37,339.04z"/>
		</g>
		<g>
			<path class="st13" d="M1081.86,487.51c0,0-33.54-8.02-45.46,6.18c-11.91,14.2-9.19,232.41-3.06,242.63s53.35,13.31,53.35,13.31
				L1081.86,487.51z"/>
		</g>
		<g>
			<path class="st3" d="M1287.3,931.04c0,0-89.53,36.09-111.32,101.45s-51.4,146.72-50.72,174.3c0.68,27.57,23.49,61.28,62.98,27.23
				c39.49-34.04,47.66-67.74,47.66-67.74s3.15,50.19,23.32,68.17c20.17,17.98,225.19,28.34,306.38,15.32
				c81.19-13.02,72.43-51.32,76.43-71.23c0,0,8.85,17.19,21.79,34.72c12.94,17.53,36.85,37.02,59.83,33.7
				c22.98-3.32,23.74-55.4,19.91-66.64c-3.83-11.23-31.4-124.34-55.4-161.36s-74.72-82.13-105.7-90.64
				c-30.98-8.51-219.23,4.09-219.23,4.09L1287.3,931.04z"/>
		</g>
		<g>
			<path class="st15" d="M1288.84,933.67c0,0-37.8,42.65-44.95,96.78c-7.15,54.13-12.43,106.55-25.02,133.45
				c-12.6,26.89-32.68,57.87-48.34,56.85c-15.66-1.02-36.09-8.61-36.09-30.35s-0.83-27.81-0.83-27.81s-14.41,40.26-8.37,54.07
				s6.19,23.21,17.73,27.38c11.54,4.17,35.37,12.19,61.37-25.61c26-37.79,31.55-52.16,31.55-52.16s4.58,51.45,21.01,65.9
				c16.44,14.44,249.52,29.11,319.7,15.56c70.18-13.54,65.41-69.2,65.41-69.2s21.62,44.43,46.13,58.21s54.56,13.79,57.15-12.26
				c2.59-26.04-1.75-44.17-1.75-44.17s-0.77,33.96-18.64,34.98s-44.94-2.4-59.74-32.17c-14.81-29.77-24.34-101.11-34.13-146.55
				s-46.43-99.15-46.43-99.15l-14.78,9.58c0,0,40.01,84.97,32.18,157.48c-7.83,72.51-17.11,104.68-70.17,118.47
				s-150.93,22.98-182.93,1.02c-32-21.96-57.02-40.34-68.77-109.28c-11.74-68.94,39.11-168.51,39.11-168.51L1288.84,933.67z"/>
		</g>
		<g>
			<g>
				<path class="st16" d="M1326.45,891.21c0,0-37.11,36.43-39.15,39.83c-2.04,3.4,55.15,47.66,125.62,45.28
					c70.47-2.38,121.53-7.49,149.11-20.43s24.85-23.83,24.85-23.83l-48.68-56.17L1326.45,891.21z"/>
			</g>
			<g>
				<path class="st17" d="M1326.45,891.21c0,0-31.64,30.33-33.68,33.74c-2.04,3.4,53.92,46.6,124.38,44.22
					c70.47-2.38,121.53-7.49,149.11-20.43s19.68-17.76,19.68-17.76l-47.75-55.09L1326.45,891.21z"/>
			</g>
		</g>
		<g>
			<path class="st18" d="M1607.36,896.66h-317.29c-117.84,0-214.25-96.41-214.25-214.25V537.97c0-117.84,96.41-214.25,214.25-214.25
				h317.29c117.84,0,214.25,96.41,214.25,214.25v144.44C1821.61,800.25,1725.19,896.66,1607.36,896.66z"/>
		</g>
		<g>
			<path class="st3" d="M1574.82,858.01h-266.98c-117.84,0-214.25-96.41-214.25-214.25V537.97c0-117.84,96.41-214.25,214.25-214.25
				h266.98c117.84,0,214.25,96.41,214.25,214.25v105.79C1789.07,761.6,1692.66,858.01,1574.82,858.01z"/>
		</g>
		<g>
			<path class="st19" d="M1159.4,476.68c-13.29,2.42-24.41,11.52-29.32,24.1c-10.41,26.64-26.39,82.56-23.54,170.18
				c4.17,128.26,96,122.55,160.34,117.45s208.34-22.47,320.68-7.15s165.74-6.09,182.55-69.96c13.59-51.61-5.55-171.46-16.06-216.75
				c-2.4-10.33-11-18.04-21.53-19.28c-57.82-6.83-249.25-26.82-417.64-14.7C1225.22,467.03,1181.09,472.73,1159.4,476.68z"/>
		</g>
		<g>
			<path class="st20" d="M1180.23,486.26c-12.42,2.26-22.82,10.76-27.41,22.52c-9.73,24.9-24.67,77.18-22.01,159.08
				c3.89,119.9,89.74,114.56,149.88,109.79s194.75-21,299.77-6.68s161.4-2.8,177.12-62.5c12.7-48.24-11.67-163.17-21.49-205.51
				c-2.24-9.65-10.29-16.86-20.13-18.02c-54.05-6.38-232.99-25.07-390.4-13.74c-55.62,4-92.5,7.7-116.94,10.81
				C1196.24,483.59,1187.05,485.02,1180.23,486.26z"/>
		</g>
		<g>
			<ellipse class="st21" cx="1277.43" cy="638.96" rx="37.45" ry="38.47"/>
		</g>
		<g>
			<ellipse class="st22" cx="1287" cy="624.11" rx="16.38" ry="15.62"/>
		</g>
		<g>
			<ellipse class="st22" cx="1256.9" cy="642.06" rx="7.9" ry="7.53"/>
		</g>
		<g>
			<ellipse class="st22" cx="1285.46" cy="649.6" rx="7.03" ry="6.7"/>
		</g>
		<g>
			<ellipse class="st21" cx="1618.69" cy="639.72" rx="37.45" ry="38.47"/>
		</g>
		<g>
			<path class="st14" d="M1194.41,486.36c0.12,1.98,0.27,3.95,0.26,5.93c-0.05,5.87,6.32,25.99,95.95,25.99
				c104.94,0,339.32,0.77,347.74-9.96c8.43-10.72-12.43-32.58-41.41-34.49c-15.03-0.99-56.95-5.19-107.61-6.2
				c-47.01-0.94-97.64-1-151.18,1.28c-60.98,2.6-142.73,14.89-143.49,15C1194.36,483.96,1194.34,485.06,1194.41,486.36z"/>
		</g>
		<g>
			<ellipse class="st22" cx="1628.26" cy="624.87" rx="16.38" ry="15.62"/>
		</g>
		<g>
			<ellipse class="st22" cx="1598.16" cy="642.83" rx="7.9" ry="7.53"/>
		</g>
		<g>
			<ellipse class="st22" cx="1626.72" cy="650.36" rx="7.03" ry="6.7"/>
		</g>
		<g>
			<ellipse class="st23" cx="1212.23" cy="695.47" rx="39.32" ry="21.45"/>
		</g>
		<g>
			<ellipse class="st23" cx="1673.07" cy="695.47" rx="39.32" ry="21.45"/>
		</g>
		<g>
			<path class="st23" d="M1494.36,698.53c0,8.32-26.81,38.81-48.53,38.81s-52.09-30.6-52.09-38.92s30.37,8.79,52.09,8.79
				S1494.36,690.21,1494.36,698.53z"/>
		</g>
		<g>
			<path class="st24" d="M1481.72,1137.58l-32.72,20.03c-4.63,2.84-10.43,2.97-15.18,0.34l-29.99-16.55
				c-1.09-0.6-2.1-1.34-3.01-2.19l-32.65-30.5c-3.06-2.86-4.79-6.85-4.79-11.04v-45.12c0-6.74,4.47-12.67,10.95-14.52l24.88-7.11
				c0.52-0.15,1.04-0.33,1.54-0.53l32.89-13.39c3.62-1.47,7.67-1.49,11.3-0.04l32.37,12.95c0.47,0.19,0.94,0.35,1.42,0.49
				l26.41,7.62c6.46,1.87,10.91,7.78,10.91,14.51v41.63c0,3.7-1.36,7.26-3.81,10.03l-27.12,30.54
				C1484.14,1135.84,1482.99,1136.8,1481.72,1137.58z"/>
		</g>
		<g>
			<path class="st17" d="M1477.67,1132.63l-29.47,18.04c-4.17,2.55-9.39,2.67-13.67,0.31l-27.01-14.91
				c-0.98-0.54-1.89-1.2-2.71-1.97l-29.4-27.47c-2.75-2.57-4.32-6.17-4.32-9.94v-40.63c0-6.07,4.02-11.41,9.86-13.08l22.41-6.41
				c0.47-0.13,0.94-0.3,1.39-0.48l29.62-12.06c3.26-1.33,6.91-1.34,10.18-0.03l29.15,11.66c0.42,0.17,0.85,0.31,1.28,0.44
				l23.78,6.86c5.82,1.68,9.83,7.01,9.83,13.07v37.49c0,3.33-1.22,6.54-3.43,9.03l-24.43,27.5
				C1479.85,1131.07,1478.82,1131.93,1477.67,1132.63z"/>
		</g>
		<g>
			<g>
				<path class="st25" d="M1453.01,1117.24h-29.05c-6.6,0-12-5.4-12-12v-16.96c0-6.6,5.4-12,12-12h29.05c6.6,0,12,5.4,12,12v16.96
					C1465.01,1111.84,1459.61,1117.24,1453.01,1117.24z"/>
			</g>
			<g>
				<ellipse class="st17" cx="1438.5" cy="1091.7" rx="7.43" ry="6.43"/>
			</g>
			<g>
				<ellipse class="st17" cx="1438.5" cy="1101.45" rx="3.72" ry="6.43"/>
			</g>
			<g>
				<path class="st25" d="M1419.22,1076.28l1.05-11.02c1.18-6.31,4.98-11.89,10.56-15.06c5.63-3.2,12.77-4.13,19.39,1.27
					c4.12,3.36,6.71,8.25,7.4,13.52l0.86,11.3h-7.37l-1.32-9.78c-0.69-3-2.59-5.64-5.31-7.08c-1.2-0.63-2.46-1.01-3.73-1.15
					c-5.75-0.64-11.25,3.51-11.87,9.26l-0.87,8.74H1419.22z"/>
			</g>
		</g>
		<g>
			<ellipse class="st26" cx="1441.37" cy="202.96" rx="50.31" ry="46.21"/>
		</g>
	</g>
	<g>
		<path class="st27" d="M1717.9,485.26c0,0,27.27,68.25,23.53,168s-23.53,107.56-23.53,107.56s28.33-14.7,38.19-47.17
			c9.85-32.47,2.69-97.69-5.78-141.24c-8.47-43.55-12.2-72.51-19.69-79.92C1723.13,485.09,1717.9,485.26,1717.9,485.26z"/>
	</g>
</g>
<g>
	<g>
		<path class="st28" d="M938.77,1253.55l-128.33,101.16c-10.31,8.13-4.48,24.51,8.72,24.51h1123.85c12.82,0,18.87-15.6,9.31-24.02
			l-114.89-101.16c-2.56-2.25-5.87-3.5-9.31-3.5H947.49C944.32,1250.53,941.24,1251.6,938.77,1253.55z"/>
	</g>
	<g>
		<path class="st29" d="M936.81,1239.76l-126.45,101.16c-10.16,8.13-4.41,24.51,8.6,24.51h1107.36c12.64,0,18.59-15.6,9.17-24.02
			l-113.2-101.16c-2.52-2.25-5.79-3.5-9.17-3.5H945.4C942.28,1236.74,939.25,1237.81,936.81,1239.76z"/>
	</g>
	<g>
		<polygon class="st30" points="1003.64,1252.57 990.87,1264.57 930.36,1262.28 944.37,1250.89 		"/>
	</g>
	<g>
		<polygon class="st30" points="986.66,1270.89 979.64,1281.55 909.17,1279.49 923.18,1269.27 		"/>
	</g>
	<g>
		<polygon class="st30" points="999.13,1314.87 989.94,1326.28 854.15,1326.07 868.16,1313.85 		"/>
	</g>
	<g>
		<polygon class="st30" points="1273,1314.86 1271.72,1326.29 1082.28,1326.07 1085.6,1313.78 		"/>
	</g>
	<g class="st31">
		<polygon class="st30" points="1933.35,1338.5 1940.1,1347.89 820.77,1346.56 834.94,1335.39 		"/>
	</g>
	<g>
		<polygon class="st30" points="1282.7,1271.78 1281.26,1283.2 1066.7,1282.98 1070.46,1270.69 		"/>
	</g>
	<g>
		<polygon class="st30" points="1510.62,1314.86 1509.12,1326.29 1285.72,1326.07 1289.64,1313.78 		"/>
	</g>
	<g>
		<polygon class="st30" points="1642.02,1254.86 1641.29,1266.29 1531.85,1266.07 1533.77,1253.78 		"/>
	</g>
	<g>
		<polygon class="st30" points="1642.02,1271.78 1641.29,1283.2 1531.85,1282.98 1533.77,1270.69 		"/>
	</g>
	<g>
		<polygon class="st30" points="1339.89,1293.32 1338.89,1304.74 1189.72,1304.53 1192.34,1292.23 		"/>
	</g>
	<g>
		<polygon class="st30" points="1841.17,1271.78 1846.96,1281.43 1733.33,1282.95 1731,1270.87 		"/>
	</g>
	<g>
		<polygon class="st30" points="1816.06,1253.78 1827.04,1264.06 1656.49,1263.3 1652.72,1253.78 		"/>
	</g>
	<g>
		<polygon class="st30" points="965.6,1291.45 956.07,1302.74 889.68,1302.11 898.83,1291.45 		"/>
	</g>
	<g>
		<polygon class="st30" points="1071.47,1314.42 1064.87,1325.71 1018.87,1325.08 1025.21,1314.42 		"/>
	</g>
	<g>
		<polygon class="st30" points="1066.7,1252.42 1057.66,1265.76 1009.02,1263.91 1014.62,1252.42 		"/>
	</g>
	<g>
		<polygon class="st30" points="1136.66,1252.42 1133.09,1264.57 1071.47,1263.91 1077.06,1252.42 		"/>
	</g>
	<g>
		<polygon class="st30" points="1213,1252.42 1209.43,1264.57 1147.81,1263.91 1153.4,1252.42 		"/>
	</g>
	<g>
		<polygon class="st30" points="1285.72,1252.42 1282.68,1264.57 1230.19,1263.91 1234.96,1252.42 		"/>
	</g>
	<g>
		<polygon class="st30" points="1183.25,1292.55 1180.21,1304.7 1127.72,1304.04 1132.49,1292.55 		"/>
	</g>
	<g>
		<polygon class="st30" points="1343.21,1270.87 1340.17,1283.02 1287.68,1282.36 1292.45,1270.87 		"/>
	</g>
	<g>
		<polygon class="st30" points="1402.36,1292.32 1402.36,1304.54 1353.32,1303.81 1354.19,1292.32 		"/>
	</g>
	<g>
		<polygon class="st30" points="1478.15,1292.29 1478.15,1304.51 1417.27,1303.78 1418.35,1292.29 		"/>
	</g>
	<g>
		<polygon class="st30" points="1584.62,1292.29 1584.62,1304.51 1489.78,1303.78 1491.47,1292.29 		"/>
	</g>
	<g>
		<polygon class="st30" points="1404.45,1253.95 1401.4,1266.11 1348.91,1265.44 1353.68,1253.95 		"/>
	</g>
	<g>
		<polygon class="st30" points="1400.4,1270.87 1397.35,1283.02 1344.87,1282.36 1349.63,1270.87 		"/>
	</g>
	<g>
		<polygon class="st30" points="1469.55,1253.95 1466.51,1266.11 1414.02,1265.44 1418.79,1253.95 		"/>
	</g>
	<g>
		<polygon class="st30" points="1466.49,1270.87 1463.44,1283.02 1410.96,1282.36 1415.72,1270.87 		"/>
	</g>
	<g>
		<polygon class="st30" points="1524.74,1253.95 1522.13,1266.11 1477.09,1265.44 1481.18,1253.95 		"/>
	</g>
	<g>
		<polygon class="st30" points="1522.36,1270.87 1519.75,1283.02 1474.7,1282.36 1478.79,1270.87 		"/>
	</g>
	<g>
		<polygon class="st30" points="1714.19,1270.87 1719.3,1281.43 1663.13,1281.81 1661.26,1271.6 		"/>
	</g>
	<g>
		<polygon class="st30" points="1654.96,1292.29 1660.06,1302.85 1603.89,1303.23 1602.02,1293.02 		"/>
	</g>
	<g>
		<polygon class="st30" points="1783.13,1314.87 1787.3,1325.43 1741.41,1325.81 1739.88,1315.6 		"/>
	</g>
	<g>
		<polygon class="st30" points="1629.89,1315.35 1636.83,1325.9 1560.46,1326.29 1557.91,1316.07 		"/>
	</g>
	<g>
		<polygon class="st30" points="1720.62,1314.87 1728.36,1325.43 1643.22,1325.81 1640.38,1315.6 		"/>
	</g>
	<g>
		<polygon class="st30" points="1545.96,1315.35 1548.4,1325.9 1521.55,1326.29 1520.66,1316.07 		"/>
	</g>
	<g>
		<polygon class="st30" points="1753.73,1292.29 1760.66,1302.85 1684.38,1303.23 1681.84,1293.02 		"/>
	</g>
	<g>
		<polygon class="st30" points="1860.8,1292.29 1871.06,1305.23 1780.32,1305.23 1772.15,1291.89 		"/>
	</g>
	<g>
		<polygon class="st30" points="1886.15,1315.27 1896.42,1328.21 1805.67,1328.21 1797.5,1314.87 		"/>
	</g>
	<g>
		<polygon class="st30" points="1343.21,1253.95 1340.59,1266.11 1295.3,1265.44 1299.41,1253.95 		"/>
	</g>
	<g>
		<polygon class="st30" points="1062.58,1272.42 1055.55,1283.09 985.09,1281.02 999.1,1270.81 		"/>
	</g>
	<g>
		<polygon class="st30" points="1041.51,1292.98 1031.98,1304.27 965.6,1303.64 974.74,1292.98 		"/>
	</g>
	<g>
		<polygon class="st30" points="1113.78,1292.98 1104.25,1304.27 1037.86,1303.64 1047.01,1292.98 		"/>
	</g>
</g>
<g>
	<g>
		<path class="st32" d="M451.38,231.47L451.38,231.47c-2.43,0-4.43-1.99-4.43-4.43v-23.49c0-2.43,1.99-4.43,4.43-4.43h0
			c2.43,0,4.43,1.99,4.43,4.43v23.49C455.81,229.48,453.82,231.47,451.38,231.47z"/>
	</g>
	<g>
		<path class="st32" d="M464.15,218.87h-23.83c-2.06,0-3.74-1.69-3.74-3.74v0c0-2.06,1.69-3.74,3.74-3.74h23.83
			c2.06,0,3.74,1.69,3.74,3.74v0C467.89,217.19,466.21,218.87,464.15,218.87z"/>
	</g>
</g>
<g>
	<g>
		<path class="st32" d="M90.37,680.65L90.37,680.65c-1.79,0-3.26-1.47-3.26-3.26v-17.31c0-1.79,1.47-3.26,3.26-3.26h0
			c1.79,0,3.26,1.47,3.26,3.26v17.31C93.63,679.18,92.16,680.65,90.37,680.65z"/>
	</g>
	<g>
		<path class="st32" d="M99.78,671.37H82.22c-1.52,0-2.76-1.24-2.76-2.76l0,0c0-1.52,1.24-2.76,2.76-2.76h17.56
			c1.52,0,2.76,1.24,2.76,2.76l0,0C102.54,670.13,101.29,671.37,99.78,671.37z"/>
	</g>
</g>
<g>
	<g>
		<path class="st32" d="M107.53,888.94h-6.52c-1.79,0-3.26-1.47-3.26-3.26v-41.12c0-1.79,1.47-3.26,3.26-3.26h6.52
			c1.79,0,3.26,1.47,3.26,3.26v41.12C110.79,887.47,109.32,888.94,107.53,888.94z"/>
	</g>
	<g>
		<path class="st32" d="M125.83,870.38H85.21c-1.52,0-2.76-1.24-2.76-2.76v-5.51c0-1.52,1.24-2.76,2.76-2.76h40.62
			c1.52,0,2.76,1.24,2.76,2.76v5.51C128.59,869.14,127.35,870.38,125.83,870.38z"/>
	</g>
</g>
<g>
	<g>
		<path class="st32" d="M966.15,189.09L966.15,189.09c-2.43,0-4.43-1.99-4.43-4.43v-23.49c0-2.43,1.99-4.43,4.43-4.43l0,0
			c2.43,0,4.43,1.99,4.43,4.43v23.49C970.57,187.09,968.58,189.09,966.15,189.09z"/>
	</g>
	<g>
		<path class="st32" d="M978.91,176.49h-23.83c-2.06,0-3.74-1.69-3.74-3.74v0c0-2.06,1.69-3.74,3.74-3.74h23.83
			c2.06,0,3.74,1.69,3.74,3.74v0C982.66,174.8,980.97,176.49,978.91,176.49z"/>
	</g>
</g>
<g>
	<g>
		<path class="st32" d="M2444.72,200.16L2444.72,200.16c-1.51,0-2.75-1.24-2.75-2.75v-14.59c0-1.51,1.24-2.75,2.75-2.75l0,0
			c1.51,0,2.75,1.24,2.75,2.75v14.59C2447.47,198.92,2446.23,200.16,2444.72,200.16z"/>
	</g>
	<g>
		<path class="st32" d="M2452.65,192.34h-14.8c-1.28,0-2.33-1.05-2.33-2.33l0,0c0-1.28,1.05-2.33,2.33-2.33h14.8
			c1.28,0,2.33,1.05,2.33,2.33l0,0C2454.97,191.29,2453.93,192.34,2452.65,192.34z"/>
	</g>
</g>
<g>
	<g>
		<path class="st32" d="M2573.07,554.47L2573.07,554.47c-1.51,0-2.75-1.24-2.75-2.75v-14.59c0-1.51,1.24-2.75,2.75-2.75l0,0
			c1.51,0,2.75,1.24,2.75,2.75v14.59C2575.82,553.23,2574.58,554.47,2573.07,554.47z"/>
	</g>
	<g>
		<path class="st32" d="M2581,546.64h-14.8c-1.28,0-2.33-1.05-2.33-2.33l0,0c0-1.28,1.05-2.33,2.33-2.33h14.8
			c1.28,0,2.33,1.05,2.33,2.33l0,0C2583.32,545.6,2582.27,546.64,2581,546.64z"/>
	</g>
</g>
<g>
	<g>
		<path class="st32" d="M2655.92,588.11h-7.57c-1.51,0-2.75-1.24-2.75-2.75v-42.38c0-1.51,1.24-2.75,2.75-2.75h7.57
			c1.51,0,2.75,1.24,2.75,2.75v42.38C2658.66,586.87,2657.43,588.11,2655.92,588.11z"/>
	</g>
	<g>
		<path class="st32" d="M2674.18,569.46h-41.57c-1.28,0-2.33-1.05-2.33-2.33v-6.44c0-1.28,1.05-2.33,2.33-2.33h41.57
			c1.28,0,2.33,1.05,2.33,2.33v6.44C2676.5,568.42,2675.45,569.46,2674.18,569.46z"/>
	</g>
</g>
<g>
	<g>
		<path class="st32" d="M2178.46,195.21h-1.29c-1.51,0-2.75-1.24-2.75-2.75v-19.31c0-1.51,1.24-2.75,2.75-2.75h1.29
			c1.51,0,2.75,1.24,2.75,2.75v19.31C2181.21,193.97,2179.97,195.21,2178.46,195.21z"/>
	</g>
	<g>
		<path class="st32" d="M2188.15,185.55h-19.37c-1.28,0-2.33-1.05-2.33-2.33v-1.09c0-1.28,1.05-2.33,2.33-2.33h19.37
			c1.28,0,2.33,1.05,2.33,2.33v1.09C2190.48,184.5,2189.43,185.55,2188.15,185.55z"/>
	</g>
</g>
<g>
	<g>
		<path class="st32" d="M2117.38,160.86L2117.38,160.86c-2.43-0.02-4.41-2.03-4.38-4.47l0.02-2.16c0.02-2.43,2.03-4.41,4.47-4.38
			l0,0c2.43,0.02,4.41,2.03,4.38,4.47l-0.02,2.16C2121.83,158.91,2119.82,160.88,2117.38,160.86z"/>
	</g>
</g>
<g>
	<g>
		<path class="st32" d="M2608.93,531.74L2608.93,531.74c-2.43-0.02-4.41-2.03-4.38-4.47l0.02-2.16c0.02-2.43,2.03-4.41,4.47-4.38
			l0,0c2.43,0.02,4.41,2.03,4.38,4.47l-0.02,2.16C2613.37,529.79,2611.36,531.77,2608.93,531.74z"/>
	</g>
</g>
<g>
	<g>
		<path class="st32" d="M915.9,172.97L915.9,172.97c-2.43-0.02-4.41-2.03-4.38-4.47l0.02-2.16c0.02-2.43,2.03-4.41,4.47-4.38l0,0
			c2.43,0.02,4.41,2.03,4.38,4.47l-0.02,2.16C920.35,171.02,918.34,172.99,915.9,172.97z"/>
	</g>
</g>
<g>
	<g>
		<path class="st32" d="M58.08,686.15L58.08,686.15c-2.43-0.02-4.41-2.03-4.38-4.47l0.02-2.16c0.02-2.43,2.03-4.41,4.47-4.38h0
			c2.43,0.02,4.41,2.03,4.38,4.47l-0.02,2.16C62.52,684.2,60.51,686.18,58.08,686.15z"/>
	</g>
</g>
<g>
	<g>
		<path class="st32" d="M128.54,894.44L128.54,894.44c-2.43-0.02-4.41-2.03-4.38-4.47l0.02-2.16c0.02-2.43,2.03-4.41,4.47-4.38l0,0
			c2.43,0.02,4.41,2.03,4.38,4.47l-0.02,2.16C132.98,892.49,130.97,894.47,128.54,894.44z"/>
	</g>
</g>
<g>
	<g>
		<path class="st33" d="M441.81,385.06H211.08c-6.6,0-12-5.4-12-12v-72.11c0-6.6,5.4-12,12-12h230.73c6.6,0,12,5.4,12,12v72.11
			C453.81,379.66,448.41,385.06,441.81,385.06z"/>
	</g>
	<g>
		<path class="st34" d="M424.57,362.52H193.85c-6.6,0-12-5.4-12-12v-59.89c0-6.6,5.4-12,12-12h230.73c6.6,0,12,5.4,12,12v59.89
			C436.57,357.12,431.17,362.52,424.57,362.52z"/>
	</g>
	<g>
		<path class="st35" d="M279.65,309.37c0,8.07-6.54,14.61-14.61,14.61c-2.52,0-4.9-0.64-6.97-1.77c-4.55-2.48-7.64-7.3-7.64-12.85
			c0-8.07,6.54-14.61,14.61-14.61C273.11,294.75,279.65,301.3,279.65,309.37z"/>
	</g>
	<g>
		<path class="st35" d="M252.61,361.26h24.86c5.7,0,9.93-5.29,8.67-10.85l-4.04-17.81c-0.92-4.05-4.52-6.92-8.67-6.92h-15.51
			c-3.93,0-7.39,2.58-8.52,6.34l-5.32,17.81C242.39,355.53,246.66,361.26,252.61,361.26z"/>
	</g>
	<g>
		<path class="st35" d="M402.66,312.24h-58.31c-1.67,0-3.04-1.37-3.04-3.04l0,0c0-1.67,1.37-3.04,3.04-3.04h58.31
			c1.67,0,3.04,1.37,3.04,3.04l0,0C405.7,310.87,404.34,312.24,402.66,312.24z"/>
	</g>
	<g>
		<path class="st35" d="M400.98,328.78h-32.39c-1.62,0-2.95-1.33-2.95-2.95l0,0c0-1.62,1.33-2.95,2.95-2.95h32.39
			c1.62,0,2.95,1.33,2.95,2.95l0,0C403.93,327.45,402.6,328.78,400.98,328.78z"/>
	</g>
	<g>
		<path class="st35" d="M400.7,343.47h-19.91c-1.78,0-3.23-1.45-3.23-3.23l0,0c0-1.78,1.45-3.23,3.23-3.23h19.91
			c1.78,0,3.23,1.45,3.23,3.23l0,0C403.93,342.01,402.48,343.47,400.7,343.47z"/>
	</g>
</g>
<g>
	<g>
		<path class="st33" d="M2658.78,934.1h-230.73c-6.6,0-12-5.4-12-12v-72.11c0-6.6,5.4-12,12-12h230.73c6.6,0,12,5.4,12,12v72.11
			C2670.78,928.7,2665.38,934.1,2658.78,934.1z"/>
	</g>
	<g>
		<path class="st34" d="M2641.54,911.56h-230.73c-6.6,0-12-5.4-12-12v-59.89c0-6.6,5.4-12,12-12h230.73c6.6,0,12,5.4,12,12v59.89
			C2653.54,906.16,2648.14,911.56,2641.54,911.56z"/>
	</g>
	<g>
		<path class="st35" d="M2496.61,858.4c0,8.07-6.54,14.61-14.61,14.61c-2.52,0-4.9-0.64-6.97-1.77c-4.55-2.48-7.64-7.3-7.64-12.85
			c0-8.07,6.54-14.61,14.61-14.61C2490.07,843.79,2496.61,850.33,2496.61,858.4z"/>
	</g>
	<g>
		<path class="st35" d="M2469.57,910.29h24.86c5.7,0,9.93-5.29,8.67-10.85l-4.04-17.81c-0.92-4.05-4.52-6.92-8.67-6.92h-15.51
			c-3.93,0-7.39,2.58-8.52,6.34l-5.32,17.81C2459.35,904.56,2463.62,910.29,2469.57,910.29z"/>
	</g>
	<g>
		<path class="st35" d="M2619.63,861.28h-58.31c-1.67,0-3.04-1.37-3.04-3.04l0,0c0-1.67,1.37-3.04,3.04-3.04h58.31
			c1.67,0,3.04,1.37,3.04,3.04l0,0C2622.67,859.91,2621.3,861.28,2619.63,861.28z"/>
	</g>
	<g>
		<path class="st35" d="M2617.95,877.81h-32.39c-1.62,0-2.95-1.33-2.95-2.95l0,0c0-1.62,1.33-2.95,2.95-2.95h32.39
			c1.62,0,2.95,1.33,2.95,2.95l0,0C2620.89,876.49,2619.57,877.81,2617.95,877.81z"/>
	</g>
	<g>
		<path class="st35" d="M2617.66,892.5h-19.91c-1.78,0-3.23-1.45-3.23-3.23l0,0c0-1.78,1.45-3.23,3.23-3.23h19.91
			c1.78,0,3.23,1.45,3.23,3.23l0,0C2620.89,891.05,2619.44,892.5,2617.66,892.5z"/>
	</g>
</g>
<g>
	<ellipse class="st36" cx="2274.41" cy="1151.19" rx="160.73" ry="154.04"/>
</g>
<g>
	<ellipse class="st25" cx="2274.41" cy="1153.36" rx="129.94" ry="124.53"/>
</g>
<g>
	<circle class="st37" cx="2274.41" cy="1151.19" r="99.69"/>
</g>
<g>
	<g>
		<path class="st25" d="M2314.41,1211.23h-80c-6.6,0-12-5.4-12-12v-56.3c0-6.6,5.4-12,12-12h80c6.6,0,12,5.4,12,12v56.3
			C2326.41,1205.83,2321.01,1211.23,2314.41,1211.23z"/>
	</g>
	<g>
		<ellipse class="st38" cx="2274.44" cy="1161.17" rx="14.57" ry="12.61"/>
	</g>
	<g>
		<ellipse class="st38" cx="2274.44" cy="1180.27" rx="7.28" ry="12.61"/>
	</g>
	<g>
		<path class="st25" d="M2236.64,1130.93l2.06-21.61c2.32-12.37,9.77-23.31,20.71-29.53c11.03-6.27,25.03-8.09,38.01,2.49
			c8.08,6.59,13.15,16.17,14.51,26.51l1.69,22.14h-14.45l-2.59-19.18c-1.36-5.89-5.07-11.05-10.41-13.87
			c-2.35-1.24-4.82-1.97-7.31-2.25c-11.28-1.26-22.05,6.88-23.27,18.16l-1.71,17.14H2236.64z"/>
	</g>
</g>
<g>
	<g>
		<path class="st39" d="M731.76,1130.34H169.51c-6.6,0-12-5.4-12-12V528.25c0-6.6,5.4-12,12-12h562.25c6.6,0,12,5.4,12,12v590.08
			C743.76,1124.94,738.36,1130.34,731.76,1130.34z"/>
	</g>
	<g>
		<path class="st40" d="M731.76,1107.88H169.51c-6.6,0-12-5.4-12-12V505.8c0-6.6,5.4-12,12-12h562.25c6.6,0,12,5.4,12,12v590.08
			C743.76,1102.48,738.36,1107.88,731.76,1107.88z"/>
	</g>
	<g>
		<path class="st22" d="M704.89,563.26H194.46c-6.6,0-12-5.4-12-12v-22.65c0-6.6,5.4-12,12-12h510.42c6.6,0,12,5.4,12,12v22.65
			C716.89,557.86,711.49,563.26,704.89,563.26z"/>
	</g>
	<g>
		<ellipse class="st41" cx="200.72" cy="536.38" rx="7.44" ry="8.62"/>
	</g>
	<g>
		<ellipse class="st42" cx="223.53" cy="537.44" rx="5.43" ry="6.29"/>
	</g>
	<g>
		<path class="st43" d="M558.18,545H262.41c-4.74,0-8.62-3.88-8.62-8.62v0c0-4.74,3.88-8.62,8.62-8.62h295.77
			c4.74,0,8.62,3.88,8.62,8.62v0C566.8,541.12,562.92,545,558.18,545z"/>
	</g>
	<g>
		<path class="st44" d="M353.48,689.73H237.37c-6.27,0-11.41-5.13-11.41-11.41v0c0-6.27,5.13-11.41,11.41-11.41h116.11
			c6.27,0,11.41,5.13,11.41,11.41v0C364.89,684.6,359.75,689.73,353.48,689.73z"/>
	</g>
	<g>
		<path class="st45" d="M424.57,827.14H238.93c-6.6,0-12-5.4-12-12v-75.38c0-6.6,5.4-12,12-12h185.65c6.6,0,12,5.4,12,12v75.38
			C436.57,821.74,431.17,827.14,424.57,827.14z"/>
	</g>
	<g>
		<path class="st46" d="M400.13,756.66h-91.77c-1.53,0-2.79-1.25-2.79-2.79l0,0c0-1.53,1.25-2.79,2.79-2.79h91.77
			c1.53,0,2.79,1.25,2.79,2.79l0,0C402.92,755.41,401.66,756.66,400.13,756.66z"/>
	</g>
	<g>
		<path class="st46" d="M376.55,777.45h-56.28c-1.12,0-2.03-0.91-2.03-2.03l0,0c0-1.12,0.91-2.03,2.03-2.03h56.28
			c1.12,0,2.03,0.91,2.03,2.03l0,0C378.58,776.54,377.66,777.45,376.55,777.45z"/>
	</g>
	<g>
		<path class="st46" d="M375.79,794.69h-54.76c-1.53,0-2.79-1.25-2.79-2.79l0,0c0-1.53,1.25-2.79,2.79-2.79h54.76
			c1.53,0,2.79,1.25,2.79,2.79l0,0C378.58,793.44,377.32,794.69,375.79,794.69z"/>
	</g>
	<g>
		<ellipse class="st46" cx="266.9" cy="774.55" rx="28.52" ry="29.79"/>
	</g>
	<g>
		<ellipse class="st47" cx="604.69" cy="664.69" rx="81.83" ry="85.46"/>
	</g>
	<g>
		<path class="st35" d="M626.86,638.58c0,11.31-9.16,20.47-20.47,20.47c-3.54,0-6.86-0.9-9.76-2.47c-6.38-3.47-10.71-10.23-10.71-18
			c0-11.31,9.16-20.47,20.47-20.47S626.86,627.27,626.86,638.58z"/>
	</g>
	<g>
		<path class="st35" d="M588.98,711.27h34.83c7.99,0,13.91-7.41,12.14-15.2l-5.66-24.94c-1.29-5.67-6.33-9.7-12.14-9.7h-21.72
			c-5.5,0-10.35,3.61-11.93,8.89l-7.45,24.94C574.66,703.24,580.64,711.27,588.98,711.27z"/>
	</g>
	<g>
		<path class="st35" d="M718.46,1095.81H196.89c-6.6,0-12-5.4-12-12V864.49c0-6.6,5.4-12,12-12h521.58c6.6,0,12,5.4,12,12v219.32
			C730.46,1090.41,725.06,1095.81,718.46,1095.81z"/>
	</g>
	<g>
		<path class="st48" d="M398.01,939.7H247.59c-6.6,0-12-5.4-12-12v-34.82c0-6.6,5.4-12,12-12h150.42c6.6,0,12,5.4,12,12v34.82
			C410.01,934.3,404.61,939.7,398.01,939.7z"/>
	</g>
	<g>
		<path class="st49" d="M420.32,1055.31H247.59c-6.6,0-12-5.4-12-12v-66.25c0-6.6,5.4-12,12-12h172.73c6.6,0,12,5.4,12,12v66.25
			C432.32,1049.91,426.92,1055.31,420.32,1055.31z"/>
	</g>
	<g>
		<path class="st50" d="M384.66,982.3H253.85c-1.12,0-2.03-0.91-2.03-2.03l0,0c0-1.12,0.91-2.03,2.03-2.03h130.82
			c1.12,0,2.03,0.91,2.03,2.03l0,0C386.69,981.38,385.78,982.3,384.66,982.3z"/>
	</g>
	<g>
		<path class="st50" d="M400.72,1042.13H253.85c-1.12,0-2.03-0.91-2.03-2.03v-3.04c0-1.12,0.91-2.03,2.03-2.03h146.87
			c1.12,0,2.03,0.91,2.03,2.03v3.04C402.75,1041.21,401.83,1042.13,400.72,1042.13z"/>
	</g>
	<g>
		<path class="st50" d="M350.18,995.48h-96.34c-1.12,0-2.03-0.91-2.03-2.03l0,0c0-1.12,0.91-2.03,2.03-2.03h96.34
			c1.12,0,2.03,0.91,2.03,2.03l0,0C352.21,994.57,351.3,995.48,350.18,995.48z"/>
	</g>
	<g>
		<path class="st50" d="M350.18,1017.28h-96.34c-1.12,0-2.03-0.91-2.03-2.03l0,0c0-1.12,0.91-2.03,2.03-2.03h96.34
			c1.12,0,2.03,0.91,2.03,2.03l0,0C352.21,1016.37,351.3,1017.28,350.18,1017.28z"/>
	</g>
	<g>
		<path class="st45" d="M693.79,939.7H469.68c-6.6,0-12-5.4-12-12v-19.04c0-6.6,5.4-12,12-12h224.11c6.6,0,12,5.4,12,12v19.04
			C705.79,934.3,700.39,939.7,693.79,939.7z"/>
	</g>
	<g>
		<path class="st51" d="M686.35,1059.7H469.68c-6.6,0-12-5.4-12-12v-21.13v-49.52c0-6.6,5.4-12,12-12h216.68c6.6,0,12,5.4,12,12
			v70.65C698.35,1054.3,692.95,1059.7,686.35,1059.7z"/>
	</g>
	<g>
		<g>
			<polygon class="st52" points="612.97,1062.44 565.64,977.18 516.34,1061.27 483.07,998.13 458.81,1026.37 456.54,1024.42 
				483.67,992.83 516.48,1055.1 565.71,971.12 613.37,1056.97 662.02,992.93 699.58,1046.85 697.12,1048.56 661.92,998.03 			"/>
		</g>
	</g>
	<g>
		<g>
			<path class="st53" d="M684.19,795.68H536.24c-10.32,0-18.76-8.44-18.76-18.76v-4.72c0-10.32,8.44-18.76,18.76-18.76h147.95
				c10.32,0,18.76,8.44,18.76,18.76v4.72C702.95,787.23,694.5,795.68,684.19,795.68z"/>
		</g>
		<g>
			<path class="st53" d="M679.69,848.25H536.14c-10.26,0-18.66-8.4-18.66-18.66v0c0-10.26,8.4-18.66,18.66-18.66h143.56
				c10.26,0,18.66,8.4,18.66,18.66v0C698.35,839.85,689.96,848.25,679.69,848.25z"/>
		</g>
		<g>
			<circle class="st54" cx="555.16" cy="774.52" r="7.89"/>
		</g>
		<g>
			<circle class="st54" cx="534.35" cy="774.52" r="7.89"/>
		</g>
		<g>
			<circle class="st54" cx="575.98" cy="774.52" r="7.89"/>
		</g>
		<g>
			<circle class="st54" cx="598.3" cy="774.52" r="7.89"/>
		</g>
		<g>
			<circle class="st54" cx="620.36" cy="774.52" r="7.89"/>
		</g>
		<g>
			<circle class="st54" cx="642.42" cy="774.52" r="7.89"/>
		</g>
		<g>
			<circle class="st54" cx="663.9" cy="774.52" r="7.89"/>
		</g>
		<g>
			<circle class="st54" cx="685.37" cy="774.52" r="7.89"/>
		</g>
		<g>
			<polygon class="st54" points="541.07,835.88 536.98,833.73 532.89,835.87 533.68,831.32 530.38,828.09 534.95,827.43 537,823.3 
				539.04,827.44 543.61,828.11 540.29,831.33 			"/>
		</g>
		<g>
			<polygon class="st54" points="554.29,835.88 550.21,833.73 546.12,835.87 546.91,831.32 543.61,828.09 548.18,827.43 
				550.23,823.3 552.26,827.44 556.83,828.11 553.52,831.33 			"/>
		</g>
		<g>
			<polygon class="st54" points="567.13,835.88 563.04,833.73 558.95,835.87 559.74,831.32 556.44,828.09 561.01,827.43 
				563.06,823.3 565.1,827.44 569.67,828.11 566.36,831.33 			"/>
		</g>
		<g>
			<polygon class="st54" points="580.05,835.88 575.97,833.73 571.88,835.87 572.66,831.32 569.36,828.09 573.93,827.43 
				575.99,823.3 578.02,827.44 582.59,828.11 579.28,831.33 			"/>
		</g>
		<g>
			<polygon class="st54" points="593.43,835.88 589.34,833.73 585.25,835.87 586.04,831.32 582.74,828.09 587.31,827.43 
				589.36,823.3 591.4,827.44 595.97,828.11 592.66,831.33 			"/>
		</g>
		<g>
			<polygon class="st54" points="606.66,835.88 602.57,833.73 598.48,835.87 599.27,831.32 595.97,828.09 600.54,827.43 
				602.59,823.3 604.63,827.44 609.19,828.11 605.88,831.33 			"/>
		</g>
		<g>
			<polygon class="st54" points="619.88,835.88 615.8,833.73 611.71,835.87 612.5,831.32 609.19,828.09 613.77,827.43 615.82,823.3 
				617.85,827.44 622.42,828.11 619.11,831.33 			"/>
		</g>
		<g>
			<polygon class="st54" points="633.11,835.88 629.03,833.73 624.93,835.87 625.72,831.32 622.42,828.09 626.99,827.43 
				629.04,823.3 631.08,827.44 635.65,828.11 632.34,831.33 			"/>
		</g>
		<g>
			<polygon class="st54" points="646.5,835.88 642.42,833.73 638.32,835.87 639.11,831.32 635.81,828.09 640.38,827.43 
				642.43,823.3 644.47,827.44 649.04,828.11 645.73,831.33 			"/>
		</g>
		<g>
			<polygon class="st54" points="659,835.88 654.91,833.73 650.82,835.87 651.61,831.32 648.31,828.09 652.88,827.43 654.93,823.3 
				656.97,827.44 661.54,828.11 658.22,831.33 			"/>
		</g>
		<g>
			<polygon class="st54" points="672.22,835.88 668.14,833.73 664.05,835.87 664.84,831.32 661.54,828.09 666.11,827.43 
				668.16,823.3 670.19,827.44 674.76,828.11 671.45,831.33 			"/>
		</g>
		<g>
			<polygon class="st54" points="684.9,835.88 680.81,833.73 676.72,835.87 677.51,831.32 674.21,828.09 678.78,827.43 
				680.83,823.3 682.87,827.44 687.44,828.11 684.12,831.33 			"/>
		</g>
	</g>
</g>
<g>
	<g>
		<g>
			<ellipse class="st55" cx="665.55" cy="213.43" rx="173.92" ry="165.52"/>
		</g>
		<g>
			<ellipse class="st56" cx="665.04" cy="214.67" rx="152.11" ry="148.06"/>
		</g>
		<g>
			<ellipse class="st57" cx="665.55" cy="214.67" rx="133.88" ry="130.31"/>
		</g>
		<g>
			<path class="st37" d="M717.47,291.6l-40.26,27.19c-5.7,3.85-12.84,4.01-18.7,0.43l-36.97-22.59c-1.34-0.82-2.59-1.82-3.71-2.98
				l-40.27-41.58c-3.77-3.89-5.92-9.34-5.93-15.03l-0.09-61.4c-0.01-9.18,5.48-17.23,13.46-19.74l30.63-9.63
				c0.64-0.2,1.28-0.44,1.9-0.72L658,127.39c4.46-2,9.45-2.01,13.92-0.02l39.9,17.69c0.57,0.25,1.16,0.48,1.75,0.67l32.54,10.43
				c7.97,2.55,13.46,10.61,13.47,19.77l0.09,56.65c0.01,5.03-1.65,9.88-4.67,13.64l-33.34,41.51
				C720.44,289.24,719.03,290.54,717.47,291.6z"/>
		</g>
		<g>
			<path class="st36" d="M709.48,280.87l-34.15,22.15c-4.83,3.14-10.89,3.27-15.85,0.36l-31.33-18.36c-1.14-0.67-2.2-1.48-3.15-2.42
				l-34.12-33.81c-3.2-3.17-5.01-7.59-5.02-12.23l-0.05-49.97c-0.01-7.47,4.65-14.03,11.42-16.07l25.97-7.85
				c0.55-0.17,1.08-0.36,1.61-0.59l34.33-14.8c3.78-1.63,8.01-1.64,11.8-0.03l33.82,14.37c0.49,0.21,0.98,0.39,1.48,0.54l27.58,8.47
				c6.75,2.07,11.41,8.63,11.41,16.08l0.04,46.1c0,4.09-1.41,8.04-3.97,11.1l-28.29,33.8C712,278.94,710.81,280.01,709.48,280.87z"
				/>
		</g>
		<g>
			<path class="st58" d="M696.51,264.21l-23.99,16.2c-3.4,2.29-7.65,2.39-11.14,0.26l-22.03-13.46c-0.8-0.49-1.54-1.09-2.21-1.78
				l-24-24.77c-2.25-2.32-3.53-5.56-3.53-8.96l-0.06-36.59c-0.01-5.47,3.26-10.27,8.02-11.76l18.25-5.74
				c0.38-0.12,0.76-0.26,1.13-0.43l24.12-10.82c2.66-1.19,5.63-1.2,8.3-0.01l23.77,10.54c0.34,0.15,0.69,0.28,1.04,0.4l19.39,6.21
				c4.75,1.52,8.02,6.32,8.03,11.78l0.05,33.76c0,3-0.99,5.89-2.78,8.13L699,261.91C698.28,262.81,697.44,263.59,696.51,264.21z"/>
		</g>
	</g>
	<g>
		<polygon class="st36" points="680.27,240.38 664.29,231.42 647.85,239.51 651.43,221.54 638.67,208.41 656.86,206.26 
			665.41,190.06 673.07,206.7 691.12,209.82 677.66,222.25 		"/>
	</g>
</g>
<g>
	<g>
		<path class="st59" d="M2549.49,729.82h-376.48c-6.6,0-12-5.4-12-12V299.45c0-6.6,5.4-12,12-12h376.48c6.6,0,12,5.4,12,12v418.37
			C2561.49,724.42,2556.09,729.82,2549.49,729.82z"/>
	</g>
	<g>
		<path class="st57" d="M2549.49,709.96h-376.48c-6.6,0-12-5.4-12-12V279.59c0-6.6,5.4-12,12-12h376.48c6.6,0,12,5.4,12,12v418.37
			C2561.49,704.56,2556.09,709.96,2549.49,709.96z"/>
	</g>
	<g>
		<path class="st60" d="M2549.49,306.88h-376.48c-6.6,0-12-5.4-12-12v-15.28c0-6.6,5.4-12,12-12h376.48c6.6,0,12,5.4,12,12v15.28
			C2561.49,301.48,2556.09,306.88,2549.49,306.88z"/>
	</g>
	<g>
		<circle class="st61" cx="2197.53" cy="287.23" r="7.75"/>
	</g>
	<g>
		<circle class="st61" cx="2220.99" cy="287.23" r="7.75"/>
	</g>
	<g>
		<circle class="st61" cx="2243.33" cy="287.23" r="7.75"/>
	</g>
	<g>
		<ellipse class="st36" cx="2359.72" cy="414.63" rx="84.2" ry="86.16"/>
	</g>
	<g>
		<path class="st36" d="M2359.71,478.75c-34.57,0-62.7-28.76-62.7-64.12s28.13-64.12,62.7-64.12c34.57,0,62.7,28.76,62.7,64.12
			S2394.29,478.75,2359.71,478.75z M2359.71,353.51c-32.92,0-59.7,27.42-59.7,61.12s26.78,61.12,59.7,61.12
			c32.92,0,59.7-27.42,59.7-61.12S2392.63,353.51,2359.71,353.51z"/>
	</g>
	<g>
		<ellipse class="st37" cx="2361.25" cy="414.63" rx="71.26" ry="72.91"/>
	</g>
	<g>
		<ellipse class="st57" cx="2361.25" cy="413.02" rx="56.82" ry="58.14"/>
	</g>
	<g>
		<path class="st36" d="M2368.24,389.81c1.93,1.16,3.72,2.52,5.51,3.87c2.08,1.56,5.14,2.68,7.33-1.53
			c3.63-6.98-9.22-17.31-25.41-12.01c-16.2,5.31-19.55,18.85-16.2,24.44s36.86,16.34,36.03,22.76c-0.84,6.42-8.52,16.76-19.83,11.73
			c-11.65-5.18-15.15-9.5-16.65-4.75c-1.5,4.75,6.05,15.07,23.35,14.8c17.73-0.28,22.06-7.54,24.02-18.99
			c1.95-11.45-8.1-15.08-18.15-20.11s-21.22-6.42-17.31-15.36c3.91-8.94,14.8-6.98,15.92-5.86
			C2367.16,389.11,2367.67,389.47,2368.24,389.81z"/>
	</g>
	<g>
		<path class="st36" d="M2362.16,383.63h-0.84c-2.27,0-4.12-1.85-4.12-4.12v-8.8c0-2.27,1.85-4.12,4.12-4.12h0.84
			c2.27,0,4.12,1.85,4.12,4.12v8.8C2366.28,381.77,2364.42,383.63,2362.16,383.63z"/>
	</g>
	<g>
		<path class="st36" d="M2362.16,463.48h-0.84c-2.27,0-4.12-1.85-4.12-4.12v-8.8c0-2.27,1.85-4.12,4.12-4.12h0.84
			c2.27,0,4.12,1.85,4.12,4.12v8.8C2366.28,461.62,2364.42,463.48,2362.16,463.48z"/>
	</g>
	<g>
		<g>
			<path class="st53" d="M2498.61,594.05h-259.99c-10.32,0-18.76-8.44-18.76-18.76v-30.25c0-10.32,8.44-18.76,18.76-18.76h259.99
				c10.32,0,18.76,8.44,18.76,18.76v30.25C2517.37,585.61,2508.93,594.05,2498.61,594.05z"/>
		</g>
		<g>
			<path class="st53" d="M2491.34,678.39h-252.83c-10.26,0-18.66-8.4-18.66-18.66v-22.54c0-10.26,8.4-18.66,18.66-18.66h252.83
				c10.26,0,18.66,8.4,18.66,18.66v22.54C2510,669.99,2501.61,678.39,2491.34,678.39z"/>
		</g>
		<g>
			<circle class="st54" cx="2280.31" cy="560.12" r="12.66"/>
		</g>
		<g>
			<circle class="st54" cx="2246.92" cy="560.12" r="12.66"/>
		</g>
		<g>
			<circle class="st54" cx="2313.7" cy="560.12" r="12.66"/>
		</g>
		<g>
			<circle class="st54" cx="2349.51" cy="560.12" r="12.66"/>
		</g>
		<g>
			<circle class="st54" cx="2384.9" cy="560.12" r="12.66"/>
		</g>
		<g>
			<circle class="st54" cx="2420.29" cy="560.12" r="12.66"/>
		</g>
		<g>
			<circle class="st54" cx="2454.74" cy="560.12" r="12.66"/>
		</g>
		<g>
			<circle class="st54" cx="2489.18" cy="560.12" r="12.66"/>
		</g>
		<g>
			<polygon class="st54" points="2257.69,658.55 2251.14,655.09 2244.58,658.53 2245.84,651.23 2240.55,646.05 2247.88,645 
				2251.17,638.36 2254.44,645.01 2261.77,646.09 2256.45,651.25 			"/>
		</g>
		<g>
			<polygon class="st54" points="2278.91,658.55 2272.36,655.09 2265.8,658.53 2267.06,651.23 2261.77,646.05 2269.1,645 
				2272.39,638.36 2275.66,645.01 2282.98,646.09 2277.67,651.25 			"/>
		</g>
		<g>
			<polygon class="st54" points="2299.5,658.55 2292.95,655.09 2286.39,658.53 2287.65,651.23 2282.36,646.05 2289.69,645 
				2292.98,638.36 2296.25,645.01 2303.57,646.09 2298.26,651.25 			"/>
		</g>
		<g>
			<polygon class="st54" points="2320.23,658.55 2313.68,655.09 2307.12,658.53 2308.38,651.23 2303.09,646.05 2310.42,645 
				2313.71,638.36 2316.98,645.01 2324.3,646.09 2318.99,651.25 			"/>
		</g>
		<g>
			<polygon class="st54" points="2341.69,658.55 2335.14,655.09 2328.58,658.53 2329.84,651.23 2324.55,646.05 2331.88,645 
				2335.17,638.36 2338.43,645.01 2345.76,646.09 2340.45,651.25 			"/>
		</g>
		<g>
			<polygon class="st54" points="2362.91,658.55 2356.36,655.09 2349.79,658.53 2351.06,651.23 2345.76,646.05 2353.1,645 
				2356.39,638.36 2359.65,645.01 2366.98,646.09 2361.67,651.25 			"/>
		</g>
		<g>
			<polygon class="st54" points="2384.13,658.55 2377.57,655.09 2371.01,658.53 2372.28,651.23 2366.98,646.05 2374.31,645 
				2377.6,638.36 2380.87,645.01 2388.2,646.09 2382.89,651.25 			"/>
		</g>
		<g>
			<polygon class="st54" points="2405.34,658.55 2398.79,655.09 2392.23,658.53 2393.49,651.23 2388.2,646.05 2395.53,645 
				2398.82,638.36 2402.09,645.01 2409.42,646.09 2404.1,651.25 			"/>
		</g>
		<g>
			<polygon class="st54" points="2426.82,658.55 2420.27,655.09 2413.71,658.53 2414.97,651.23 2409.68,646.05 2417.01,645 
				2420.3,638.36 2423.57,645.01 2430.9,646.09 2425.58,651.25 			"/>
		</g>
		<g>
			<polygon class="st54" points="2446.87,658.55 2440.32,655.09 2433.76,658.53 2435.02,651.23 2429.73,646.05 2437.06,645 
				2440.35,638.36 2443.61,645.01 2450.94,646.09 2445.63,651.25 			"/>
		</g>
		<g>
			<polygon class="st54" points="2468.09,658.55 2461.54,655.09 2454.97,658.53 2456.24,651.23 2450.94,646.05 2458.28,645 
				2461.57,638.36 2464.83,645.01 2472.16,646.09 2466.85,651.25 			"/>
		</g>
		<g>
			<polygon class="st54" points="2488.42,658.55 2481.87,655.09 2475.3,658.53 2476.57,651.23 2471.27,646.05 2478.61,645 
				2481.9,638.36 2485.16,645.01 2492.49,646.09 2487.18,651.25 			"/>
		</g>
	</g>
</g>
<g>
	<g>
		<circle class="st36" cx="295.42" cy="1226.8" r="82.57"/>
	</g>
	<g>
		<circle class="st25" cx="295.42" cy="1226.8" r="63.87"/>
	</g>
	<g>
		<path class="st36" d="M270.15,1222.19l18.65,24.08l44.27-53.34c1.74-2.1,4.91-2.24,6.83-0.32l0.87,0.87
			c1.67,1.67,1.81,4.34,0.33,6.18l-48.91,60.52c-1.32,1.64-3.84,1.6-5.1-0.09l-24.29-32.28c-1.55-2.06-1.12-4.98,0.95-6.51l0,0
			C265.77,1219.81,268.61,1220.2,270.15,1222.19z"/>
	</g>
</g>
<g>
	<g>
		<circle class="st36" cx="1965.71" cy="261.72" r="82.57"/>
	</g>
	<g>
		<circle class="st25" cx="1965.71" cy="261.72" r="63.87"/>
	</g>
	<g>
		<path class="st36" d="M1983.97,299.68L1983.97,299.68c-5.57-2.78-12.34-0.81-15.55,4.53l0,0c-5.58,9.28-19.64,6.93-21.9-3.66v0
			c-1.3-6.09-7.07-10.15-13.24-9.34h0c-10.73,1.42-17.66-11.03-10.79-19.4v0c3.95-4.81,3.53-11.86-0.95-16.17l0,0
			c-7.8-7.5-2.39-20.69,8.44-20.54l0,0c6.23,0.09,11.47-4.63,12.05-10.83v0c1-10.78,14.68-14.76,21.32-6.21l0,0
			c3.81,4.92,10.77,6.08,15.98,2.67v0c9.05-5.94,20.7,2.28,18.14,12.8v0c-1.47,6.05,1.96,12.22,7.88,14.16v0
			c10.29,3.38,11.13,17.6,1.31,22.16l0,0c-5.65,2.62-8.33,9.15-6.16,14.98v0C2004.26,294.99,1993.66,304.51,1983.97,299.68z"/>
	</g>
	<g>
		<circle class="st25" cx="1965.71" cy="261.72" r="21.07"/>
	</g>
</g>
<g>
	<circle class="st57" cx="2222.48" cy="206.05" r="3.09"/>
</g>
<g>
	<circle class="st57" cx="2601.45" cy="581.7" r="3.09"/>
</g>
<g>
	<circle class="st57" cx="960.96" cy="221.55" r="3.09"/>
</g>
<g>
	<circle class="st57" cx="458.82" cy="265.04" r="3.09"/>
</g>
</svg>
